<svg xmlns="http://www.w3.org/2000/svg" width="820" height="262" viewBox="0 0 820 262" role="img" aria-label="Adam Alizeerj GitHub summary">
<title>Adam Alizeerj: 5 public repositories, Python</title>
<style>text{font-family:-apple-system,BlinkMacSystemFont,"Segoe UI",Helvetica,Arial,sans-serif}.h{font-size:19px;font-weight:600}.sub{font-size:12.5px}.n{font-size:26px;font-weight:600}.l{font-size:11.5px}.k{font-size:12.5px}.f{font-size:10.5px}</style>
<rect x="0.5" y="0.5" width="819" height="261" rx="10" fill="#0d1117" stroke="#30363d"/>
<text class="h" x="28" y="38" fill="#e6edf3">Adam Alizeerj</text>
<text class="sub" x="792" y="38" text-anchor="end" fill="#9198a1">@adamalizeerj</text>
<text class="sub" x="28" y="59" fill="#9198a1">Security engineer. Detection and automated response for cloud, network, and LLM systems. I…</text>
<line x1="28" y1="74" x2="792" y2="74" stroke="#21262d"/>
<text class="n" x="28" y="112" fill="#e6edf3">5</text>
<text class="l" x="28" y="130" fill="#9198a1">public repos</text>
<text class="n" x="160" y="112" fill="#e6edf3">5</text>
<text class="l" x="160" y="130" fill="#9198a1">pushed in 90 days</text>
<text class="n" x="292" y="112" fill="#e6edf3">1</text>
<text class="l" x="292" y="130" fill="#9198a1">languages</text>
<text class="l" x="438" y="90" fill="#9198a1">REPOSITORY HYGIENE</text>
<text class="k" x="438" y="112" fill="#e6edf3">5/5</text>
<text class="l" x="480" y="112" fill="#9198a1">documented</text>
<rect x="438" y="117" width="120" height="3" rx="1.5" fill="#21262d"/>
<rect x="438" y="117" width="120" height="3" rx="1.5" fill="#4493f8"/>
<text class="k" x="586" y="112" fill="#e6edf3">1/5</text>
<text class="l" x="628" y="112" fill="#9198a1">with CI</text>
<rect x="586" y="117" width="120" height="3" rx="1.5" fill="#21262d"/>
<rect x="586" y="117" width="24" height="3" rx="1.5" fill="#4493f8"/>
<text class="k" x="438" y="138" fill="#e6edf3">5/5</text>
<text class="l" x="480" y="138" fill="#9198a1">described</text>
<rect x="438" y="143" width="120" height="3" rx="1.5" fill="#21262d"/>
<rect x="438" y="143" width="120" height="3" rx="1.5" fill="#4493f8"/>
<text class="k" x="586" y="138" fill="#e6edf3">2/5</text>
<text class="l" x="628" y="138" fill="#9198a1">licensed</text>
<rect x="586" y="143" width="120" height="3" rx="1.5" fill="#21262d"/>
<rect x="586" y="143" width="48" height="3" rx="1.5" fill="#4493f8"/>
<text class="l" x="28" y="185" fill="#9198a1">LANGUAGES BY REPOSITORY</text>
<rect x="28" y="196" width="764" height="9" rx="4.5" fill="#21262d"/>
<rect x="28" y="196" width="764" height="9" fill="#3572A5"><title>Python: 4 repos</title></rect>
<circle cx="32" cy="224" r="4" fill="#3572A5"/>
<text class="l" x="43" y="228" fill="#e6edf3">Python <tspan fill="#9198a1">4</tspan></text>
<text class="f" x="28" y="248" fill="#9198a1">Generated 2026-09-21 from the GitHub REST API. Counts cover public, non-archived repositories owned by this account.</text>
</svg>