<svg xmlns="http://www.w3.org/2000/svg" width="820" height="262" viewBox="0 0 820 262" role="img" aria-label="Adam Alizeerj GitHub summary">
<title>Adam Alizeerj: 4 public repositories, Python</title>
<style>text{font-family:-apple-system,BlinkMacSystemFont,"Segoe UI",Helvetica,Arial,sans-serif}.h{font-size:19px;font-weight:600}.sub{font-size:12.5px}.n{font-size:26px;font-weight:600}.l{font-size:11.5px}.k{font-size:12.5px}.f{font-size:10.5px}</style>
<rect x="0.5" y="0.5" width="819" height="261" rx="10" fill="#ffffff" stroke="#d0d7de"/>
<text class="h" x="28" y="38" fill="#1f2328">Adam Alizeerj</text>
<text class="sub" x="792" y="38" text-anchor="end" fill="#59636e">@adamalizeerj</text>
<text class="sub" x="28" y="59" fill="#59636e">Security engineer. Detection and automated response for cloud, network, and LLM systems. I…</text>
<line x1="28" y1="74" x2="792" y2="74" stroke="#d1d9e0"/>
<text class="n" x="28" y="112" fill="#1f2328">4</text>
<text class="l" x="28" y="130" fill="#59636e">public repos</text>
<text class="n" x="160" y="112" fill="#1f2328">4</text>
<text class="l" x="160" y="130" fill="#59636e">pushed in 90 days</text>
<text class="n" x="292" y="112" fill="#1f2328">1</text>
<text class="l" x="292" y="130" fill="#59636e">languages</text>
<text class="l" x="438" y="90" fill="#59636e">REPOSITORY HYGIENE</text>
<text class="k" x="438" y="112" fill="#1f2328">4/4</text>
<text class="l" x="480" y="112" fill="#59636e">documented</text>
<rect x="438" y="117" width="120" height="3" rx="1.5" fill="#eaeef2"/>
<rect x="438" y="117" width="120" height="3" rx="1.5" fill="#0969da"/>
<text class="k" x="586" y="112" fill="#1f2328">1/4</text>
<text class="l" x="628" y="112" fill="#59636e">with CI</text>
<rect x="586" y="117" width="120" height="3" rx="1.5" fill="#eaeef2"/>
<rect x="586" y="117" width="30" height="3" rx="1.5" fill="#0969da"/>
<text class="k" x="438" y="138" fill="#1f2328">4/4</text>
<text class="l" x="480" y="138" fill="#59636e">described</text>
<rect x="438" y="143" width="120" height="3" rx="1.5" fill="#eaeef2"/>
<rect x="438" y="143" width="120" height="3" rx="1.5" fill="#0969da"/>
<text class="k" x="586" y="138" fill="#1f2328">1/4</text>
<text class="l" x="628" y="138" fill="#59636e">licensed</text>
<rect x="586" y="143" width="120" height="3" rx="1.5" fill="#eaeef2"/>
<rect x="586" y="143" width="30" height="3" rx="1.5" fill="#0969da"/>
<text class="l" x="28" y="185" fill="#59636e">LANGUAGES BY REPOSITORY</text>
<rect x="28" y="196" width="764" height="9" rx="4.5" fill="#eaeef2"/>
<rect x="28" y="196" width="764" height="9" fill="#3572A5"><title>Python: 3 repos</title></rect>
<circle cx="32" cy="224" r="4" fill="#3572A5"/>
<text class="l" x="43" y="228" fill="#1f2328">Python <tspan fill="#59636e">3</tspan></text>
<text class="f" x="28" y="248" fill="#59636e">Generated 2026-09-07 from the GitHub REST API. Counts cover public, non-archived repositories owned by this account.</text>
</svg>